<svg width="392" height="392" viewBox="0 0 392 392" fill="none" xmlns="http://www.w3.org/2000/svg">
<path d="M195.996 364.479C289.154 364.479 364.672 288.962 364.672 195.803C364.672 102.644 289.154 27.1268 195.996 27.1268C102.837 27.1268 27.3193 102.644 27.3193 195.803C27.3193 288.962 102.837 364.479 195.996 364.479Z" fill="#F3F5FF"/>
<path d="M0.656281 321.742H391.344" stroke="#CCCCCC" stroke-linecap="round" stroke-linejoin="round"/>
<path d="M234.778 135.94C239.609 135.94 243.529 132.02 243.529 127.19C243.529 122.359 239.609 118.439 234.778 118.439C229.948 118.439 226.028 122.359 226.028 127.19C226.028 132.02 229.948 135.94 234.778 135.94Z" fill="#22BE8D"/>
<path d="M248.823 123.401H327.036" stroke="black" stroke-linecap="round" stroke-linejoin="round"/>
<path d="M248.823 129.517H260.426" stroke="black" stroke-linecap="round" stroke-linejoin="round"/>
<path d="M231.269 128.109L233.754 129.797L238.287 124.573" stroke="white" stroke-linecap="round" stroke-linejoin="round"/>
<path d="M234.778 165.815C239.609 165.815 243.529 161.895 243.529 157.064C243.529 152.234 239.609 148.314 234.778 148.314C229.948 148.314 226.028 152.234 226.028 157.064C226.028 161.895 229.948 165.815 234.778 165.815Z" fill="#22BE8D"/>
<path d="M248.823 153.275H327.036" stroke="black" stroke-linecap="round" stroke-linejoin="round"/>
<path d="M248.823 159.392H260.426" stroke="black" stroke-linecap="round" stroke-linejoin="round"/>
<path d="M231.269 157.983L233.754 159.672L238.287 154.448" stroke="white" stroke-linecap="round" stroke-linejoin="round"/>
<path d="M234.778 195.689C239.609 195.689 243.529 191.769 243.529 186.939C243.529 182.108 239.609 178.188 234.778 178.188C229.948 178.188 226.028 182.108 226.028 186.939C226.028 191.769 229.948 195.689 234.778 195.689Z" fill="#22BE8D"/>
<path d="M248.823 183.15H327.036" stroke="black" stroke-linecap="round" stroke-linejoin="round"/>
<path d="M248.823 189.275H260.426" stroke="black" stroke-linecap="round" stroke-linejoin="round"/>
<path d="M231.269 187.858L233.754 189.546L238.287 184.322" stroke="white" stroke-linecap="round" stroke-linejoin="round"/>
<path d="M136.308 194.779L169.28 188.864C178.932 187.131 188.636 191.673 193.484 200.205L258.387 314.347H154.413L136.317 194.788L136.308 194.779Z" fill="#002EFF"/>
<path d="M153.144 314.347H257.118L212.753 236.318H141.331L153.144 314.347Z" fill="white"/>
<path d="M257.118 315.607H153.144C152.523 315.607 151.989 315.152 151.901 314.531L140.088 236.502C140.036 236.135 140.141 235.767 140.377 235.487C140.613 235.207 140.963 235.049 141.331 235.049H212.753C213.208 235.049 213.628 235.294 213.847 235.688L258.212 313.717C258.431 314.111 258.431 314.584 258.212 314.977C257.985 315.362 257.573 315.607 257.118 315.607Z" fill="white" stroke="black" stroke-linecap="round" stroke-linejoin="round"/>
<path d="M62.5142 229.598L96.1777 184.646C104.394 173.673 119.883 171.686 130.524 180.253L146.249 192.915L153.1 185.521H153.407C166.419 185.521 177.628 194.849 180.175 207.818L186.02 321.216H49.4933L62.5142 229.598Z" fill="#002EFF"/>
<path d="M195.969 273.43L176.184 261.975H204.816C206.094 261.975 207.249 262.579 207.975 263.62C208.71 264.67 208.876 265.957 208.439 267.155C207.074 270.909 203.477 273.43 199.487 273.43H195.961H195.969Z" fill="white"/>
<path d="M204.825 262.631C205.884 262.631 206.846 263.13 207.45 263.996C208.054 264.863 208.203 265.93 207.835 266.928C206.566 270.419 203.215 272.765 199.496 272.765H196.153L178.634 262.623H204.825M204.825 261.31H173.752L195.803 274.077H199.505C203.784 274.077 207.616 271.399 209.078 267.374C210.145 264.425 207.966 261.31 204.834 261.31H204.825Z" fill="black"/>
<path d="M53.0111 322.065C41.8453 322.065 31.7384 315.677 26.6368 305.395C21.5352 295.114 22.6553 283.484 29.6382 274.287L63.048 230.263C97.9366 230.368 111.64 246.854 113.723 249.672L92.7387 272.668L170.671 262.071C171.695 261.931 172.623 261.861 173.515 261.861C177.882 261.861 180.892 263.506 186.361 266.49C187.726 267.234 189.24 268.065 190.955 268.958L220.996 286.232C221.154 286.319 221.259 286.468 221.294 286.643C221.329 286.818 221.285 286.993 221.171 287.133C219.683 289.014 217.461 290.091 215.081 290.091C214.871 290.091 214.661 290.091 214.451 290.064C204.895 289.277 188.663 282.793 185.022 280.789L180.42 278.251L209.104 305.107C209.559 305.527 209.778 306.131 209.717 306.743C209.655 307.356 209.314 307.898 208.789 308.222C206.829 309.429 204.589 310.06 202.287 310.06C199.828 310.06 197.448 309.342 195.409 307.977L195.103 307.776L191.297 309.543C189.511 310.375 187.613 310.795 185.644 310.795C182.878 310.795 180.21 309.955 177.943 308.371L166.76 300.539C165.929 299.953 164.949 299.646 163.933 299.646C163.592 299.646 163.26 299.681 162.927 299.751L59.4515 321.4C57.3076 321.847 55.1462 322.074 53.0286 322.074H53.0111V322.065Z" fill="white"/>
<path d="M63.3717 230.91C82.7718 231.024 95.3114 236.266 102.443 240.676C108.367 244.343 111.631 248.035 112.865 249.619L93.4737 270.874L91.0323 273.543L94.6201 273.053L170.759 262.701C171.748 262.57 172.649 262.5 173.507 262.5C177.707 262.5 180.665 264.119 186.037 267.05C187.385 267.785 188.908 268.617 190.614 269.518L220.602 286.757C219.237 288.446 217.225 289.417 215.063 289.417C214.871 289.417 214.678 289.417 214.486 289.391C205.017 288.612 188.925 282.18 185.32 280.194L176.106 275.11L183.789 282.303L208.631 305.562C208.929 305.842 209.086 306.244 209.043 306.656C208.999 307.067 208.771 307.426 208.421 307.644C206.566 308.782 204.44 309.386 202.261 309.386C199.933 309.386 197.676 308.703 195.742 307.408L195.129 306.997L194.464 307.303L190.99 308.913C189.293 309.701 187.49 310.103 185.617 310.103C182.983 310.103 180.455 309.307 178.293 307.793L167.11 299.961C166.165 299.305 165.062 298.955 163.907 298.955C163.522 298.955 163.137 298.999 162.761 299.078L59.2852 320.726C57.1851 321.164 55.0674 321.392 52.9935 321.392C42.0816 321.392 32.2021 315.144 27.2056 305.08C22.2177 295.035 23.3116 283.659 30.1458 274.655L63.3542 230.893M62.7067 229.58L29.0957 273.867C13.4759 294.448 29.0169 322.704 52.9848 322.704C55.1112 322.704 57.2988 322.485 59.539 322.013L163.015 300.364C163.303 300.303 163.601 300.276 163.89 300.276C164.756 300.276 165.614 300.539 166.34 301.046L177.523 308.878C179.93 310.558 182.756 311.425 185.6 311.425C187.613 311.425 189.634 310.996 191.524 310.112L194.998 308.502C197.186 309.963 199.715 310.698 202.244 310.698C204.615 310.698 206.986 310.051 209.086 308.764C210.565 307.854 210.767 305.789 209.507 304.608L184.664 281.349C188.059 283.221 204.361 289.889 214.354 290.703C214.582 290.721 214.809 290.729 215.046 290.729C217.61 290.729 220.042 289.557 221.652 287.527C222.134 286.923 221.959 286.03 221.294 285.645L191.235 268.363C182.686 263.883 179.168 261.187 173.498 261.187C172.588 261.187 171.625 261.257 170.566 261.397L94.4276 271.749L114.545 249.698C114.545 249.698 101.778 229.58 62.7067 229.58Z" fill="black"/>
<path d="M277.665 321.217H128.599V315.721C128.599 312.265 131.408 309.464 134.855 309.464H277.665V321.217Z" fill="black"/>
<path d="M219.823 321.216H355.361L385.148 231.19C388.027 222.492 381.552 213.532 372.39 213.532H265.16C259.367 213.532 254.222 217.251 252.402 222.746L219.823 321.216Z" fill="black"/>
<path d="M134.068 181.233L157.388 182.485L178.258 189.345L177.471 192.635C173.9 207.555 156.959 212.202 147.587 200.826L134.068 181.233Z" fill="white"/>
<path d="M59.749 277.674L99.0566 271.767" stroke="black" stroke-linecap="round" stroke-linejoin="round"/>
<path d="M112.813 250.626L135.162 227.235" stroke="black" stroke-linecap="round" stroke-linejoin="round"/>
<path d="M168.554 185.871L178.258 189.345" stroke="black" stroke-linecap="round" stroke-linejoin="round"/>
<path d="M175.257 275.206L183.509 280.334" stroke="black" stroke-linecap="round" stroke-linejoin="round"/>
<path d="M174.784 289.819L195.462 308.064" stroke="black" stroke-linecap="round" stroke-linejoin="round"/>
<path d="M199.933 115.665C199.933 115.665 207.564 118.798 205.744 124.617C204.37 129.01 197.763 128.126 197.763 128.126L192.74 117.319L199.942 115.665H199.933Z" fill="black"/>
<path d="M138.452 133.691C138.889 131.066 139.476 129.465 139.476 129.465L154.387 103.747L179.265 99.3017L194.421 114.073C194.421 114.073 198.551 119.927 200.625 129.019C204.37 127.452 209.104 127.216 211.187 134.295C213.112 140.841 206.251 145.986 201.088 146.712C200.625 149.302 199.898 151.971 198.848 154.702C193.405 168.834 180.962 174.39 168.545 172.745L168.571 185.871L178.267 189.345L175.572 197.422C174.224 201.447 170.978 204.554 166.891 205.718C160.057 207.669 152.724 206.68 146.642 203.005C140.438 199.251 135.66 193.545 133.053 186.781L130.541 180.253L140.386 181.566L142.381 155.48C141.436 153.888 140.683 152.295 140.088 150.72C135.144 151.98 125.107 146.747 126.962 138.986C128.87 131.023 134.505 131.898 138.461 133.674V133.691H138.452Z" fill="white" stroke="black" stroke-miterlimit="10"/>
<path d="M139.563 138.627C139.563 138.627 151.193 130.016 150.545 117.722C150.545 117.722 165.421 114.221 169.166 108.595C169.166 108.595 180.052 118.238 185.512 114.624C188.558 112.611 185.075 108.105 185.075 108.105C185.075 108.105 193.624 119.025 201.657 117.835C209.157 116.724 208.518 110.354 201.841 106.678C197.238 104.149 188.304 103.003 188.304 103.003C188.304 103.003 195.978 96.1164 190.675 92.7212C187.14 90.4636 177.742 97.9278 171.975 98.1466C166.209 98.3653 157.992 99.2054 154.124 101.428C154.124 101.428 158.648 93.7188 152.409 92.0124C148.419 90.9186 145.461 101.822 142.792 107.09C140.123 112.349 130.935 130.349 136.185 139.196L139.546 138.636H139.563V138.627Z" fill="black"/>
<path d="M201.622 144.078L200.791 129.824L194.587 129.474L191.813 141.926L201.622 144.078Z" fill="white"/>
<path d="M137.06 144.428L131.906 137.279" stroke="black" stroke-miterlimit="10" stroke-linecap="round"/>
<path d="M135.205 141.856L132.563 143.755" stroke="black" stroke-miterlimit="10" stroke-linecap="round"/>
<path d="M201.701 141.156L205.122 133.035" stroke="black" stroke-miterlimit="10" stroke-linecap="round"/>
<path d="M202.935 138.224L205.928 139.493" stroke="black" stroke-miterlimit="10" stroke-linecap="round"/>
</svg>
